<svg id="Layer_1" data-name="Layer 1" xmlns="http://www.w3.org/2000/svg" xmlns:xlink="http://www.w3.org/1999/xlink" viewBox="0 0 345 850"><defs><style>.cls-1{fill:url(#linear-gradient);}.cls-2{fill:url(#linear-gradient-2);}.cls-3{fill:url(#linear-gradient-3);}.cls-4{fill:url(#linear-gradient-4);}.cls-5{fill:url(#linear-gradient-5);}.cls-15,.cls-21,.cls-25,.cls-31,.cls-6{font-size:18px;font-family:WorkSans-Regular, Work Sans;}.cls-6{fill:#fff;}.cls-16,.cls-6{letter-spacing:0.0105em;}.cls-7{letter-spacing:0.0143em;}.cls-8{letter-spacing:-0.02441em;}.cls-9{letter-spacing:-0.04959em;}.cls-10,.cls-31{letter-spacing:0.02062em;}.cls-11{letter-spacing:0.01348em;}.cls-12{letter-spacing:0.00692em;}.cls-13{letter-spacing:0.00901em;}.cls-14{letter-spacing:0.02498em;}.cls-15,.cls-21,.cls-25,.cls-31,.cls-35{fill:#ffb100;}.cls-15,.cls-22{letter-spacing:0.01758em;}.cls-17{letter-spacing:0.01649em;}.cls-18,.cls-21{letter-spacing:0.01202em;}.cls-19{letter-spacing:0.01378em;}.cls-20{letter-spacing:0.02501em;}.cls-23{letter-spacing:0.05189em;}.cls-24{letter-spacing:0.02059em;}.cls-25{letter-spacing:0.01248em;}.cls-26{letter-spacing:0.00941em;}.cls-27{letter-spacing:0.00439em;}.cls-28{letter-spacing:0.0701em;}.cls-29{letter-spacing:0.0312em;}.cls-30{letter-spacing:0.01253em;}.cls-32{letter-spacing:0.02962em;}.cls-33,.cls-34,.cls-36,.cls-37,.cls-38,.cls-39,.cls-40,.cls-41,.cls-42{fill:none;stroke:#ffb100;stroke-miterlimit:10;}.cls-33,.cls-34{stroke-width:1.07417px;}.cls-34{stroke-dasharray:9.21236 9.21236;}.cls-36,.cls-37{stroke-width:0.98533px;}.cls-37{stroke-dasharray:8.82177 8.82177;}.cls-38,.cls-39{stroke-width:0.93251px;}.cls-39{stroke-dasharray:8.19721 8.19721;}.cls-40,.cls-41{stroke-width:1.18786px;}.cls-41{stroke-dasharray:10.62469 10.62469;}.cls-42{stroke-dasharray:9 9;}</style><linearGradient id="linear-gradient" x1="221.29037" y1="119.79037" x2="123.70963" y2="22.20963" gradientUnits="userSpaceOnUse"><stop offset="0" stop-color="#ffd800"/><stop offset="1" stop-color="#ffb100"/></linearGradient><linearGradient id="linear-gradient-2" x1="221.29033" y1="296.79037" x2="123.70959" y2="199.20963" xlink:href="#linear-gradient"/><linearGradient id="linear-gradient-3" x1="221.29034" y1="473.79037" x2="123.70959" y2="376.20963" xlink:href="#linear-gradient"/><linearGradient id="linear-gradient-4" x1="221.29034" y1="650.79037" x2="123.70959" y2="553.20963" xlink:href="#linear-gradient"/><linearGradient id="linear-gradient-5" x1="221.29034" y1="827.79037" x2="123.70959" y2="730.20963" xlink:href="#linear-gradient"/></defs><title>approach_vertical</title><circle class="cls-1" cx="172.5" cy="71" r="69"/><path class="cls-2" d="M172.5,186a62,62,0,1,1-62,62,62.07023,62.07023,0,0,1,62-62m0-7a69,69,0,1,0,69,69,69,69,0,0,0-69-69Z"/><path class="cls-3" d="M172.5,363a62,62,0,1,1-62,62,62.07021,62.07021,0,0,1,62-62m0-7a69,69,0,1,0,69,69,69,69,0,0,0-69-69Z"/><path class="cls-4" d="M172.5,540a62,62,0,1,1-62,62,62.07021,62.07021,0,0,1,62-62m0-7a69,69,0,1,0,69,69,69,69,0,0,0-69-69Z"/><path class="cls-5" d="M172.5,717a62,62,0,1,1-62,62,62.07021,62.07021,0,0,1,62-62m0-7a69,69,0,1,0,69,69,69,69,0,0,0-69-69Z"/><text class="cls-6" transform="translate(119.99227 76.13623)">E<tspan class="cls-7" x="11.67285" y="0">M</tspan><tspan class="cls-8" x="27.30176" y="0">P</tspan><tspan class="cls-9" x="37.84229" y="0">A</tspan><tspan class="cls-10" x="48.82959" y="0">T</tspan><tspan class="cls-11" x="60.07227" y="0">H</tspan><tspan class="cls-12" x="73.52686" y="0">I</tspan><tspan class="cls-13" x="78.979" y="0">Z</tspan><tspan class="cls-14" x="90.48096" y="0">E</tspan></text><text class="cls-15" transform="translate(137.60848 253.13628)">D<tspan class="cls-16" x="13.29443" y="0">E</tspan><tspan class="cls-17" x="24.96729" y="0">F</tspan><tspan class="cls-18" x="36.24414" y="0">I</tspan><tspan class="cls-19" x="41.78809" y="0">N</tspan><tspan class="cls-20" x="55.24805" y="0">E</tspan></text><text class="cls-21" transform="translate(138.48995 430.13634)">I<tspan class="cls-22" x="5.54395" y="0">D</tspan><tspan class="cls-23" x="18.83838" y="0">E</tspan><tspan class="cls-9" x="31.25635" y="0">A</tspan><tspan class="cls-24" x="42.24365" y="0">T</tspan><tspan class="cls-20" x="53.48584" y="0">E</tspan></text><text class="cls-25" transform="translate(117.44454 607.13638)">P<tspan class="cls-26" x="11.20459" y="0">R</tspan><tspan class="cls-27" x="23.34375" y="0">OTO</tspan><tspan class="cls-28" x="61.38086" y="0">T</tspan><tspan class="cls-29" x="73.51416" y="0">Y</tspan><tspan class="cls-30" x="84.37158" y="0">P</tspan><tspan class="cls-14" x="95.57666" y="0">E</tspan></text><text class="cls-31" transform="translate(147.91537 784.13647)">T<tspan class="cls-14" x="11.24268" y="0">E</tspan><tspan class="cls-32" x="23.17627" y="0">S</tspan><tspan class="cls-20" x="35.24707" y="0">T</tspan></text><path class="cls-33" d="M98.987,429.41992q-1.42309,1.954-2.76806,3.96228"/><path class="cls-34" d="M91.37508,441.21741C65.0234,487.50269,67.0162,550.67725,97.34152,594.46582"/><path class="cls-33" d="M100.02487,598.19031q1.44853,1.93332,2.97485,3.80963"/><path class="cls-35" d="M102.94186,424.283a32.46321,32.46321,0,0,1-9.62586,4.21173l5.18421,1.62372,2.94507,4.56378A32.43288,32.43288,0,0,1,102.94186,424.283Z"/><path class="cls-36" d="M246.50582,75.22049q1.22279,1.84727,2.42993,3.70831"/><path class="cls-37" d="M253.66866,86.37259c121.00879,194.18408,119.069,494.18277-5.7611,685.26517"/><path class="cls-36" d="M245.4764,775.32214q-1.23029,1.8458-2.47607,3.67762"/><path class="cls-35" d="M243.19308,70.28287a29.78011,29.78011,0,0,1,.63757,9.61682l3.01489-3.96774,4.85474-1.12049A29.7529,29.7529,0,0,1,243.19308,70.28287Z"/><path class="cls-38" d="M245.71151,429.96973q.95856,1.85816,1.89233,3.74316"/><path class="cls-39" d="M251.12838,441.11053c43.88269,95.80671,42.44739,237.61506-4.2854,330.54725"/><path class="cls-38" d="M244.97494,775.30005q-.97485,1.86382-1.97461,3.69977"/><path class="cls-35" d="M243.07748,425.00006a28.18341,28.18341,0,0,1-.27356,9.11713l3.2008-3.46363,4.675-.61425A28.15754,28.15754,0,0,1,243.07748,425.00006Z"/><path class="cls-40" d="M97.04391,252.64154q-1.75782,2.01663-3.48328,4.05475"/><path class="cls-41" d="M86.81258,264.90326C-28.93192,409.857-26.19974,629.35388,94.95419,770.99915"/><path class="cls-40" d="M98.43832,775.014q1.76458,2.004,3.5614,3.98633"/><path class="cls-35" d="M101.807,247.28339a35.899,35.899,0,0,1-10.90759,4.00308l5.6134,2.1401,2.94458,5.23511A35.86694,35.86694,0,0,1,101.807,247.28339Z"/><line class="cls-42" x1="171.99996" y1="140.5" x2="171.99996" y2="173.46484"/><path class="cls-35" d="M172,179.5a30.22175,30.22175,0,0,0-4.75586-8.54736L172,172.67285l4.75489-1.72021A30.19548,30.19548,0,0,0,172,179.5Z"/><line class="cls-42" x1="172.99996" y1="317" x2="172.99996" y2="350.96484"/><path class="cls-35" d="M173,357a30.22216,30.22216,0,0,0-4.75586-8.54736L173,350.17285l4.75489-1.72021A30.1959,30.1959,0,0,0,173,357Z"/><line class="cls-42" x1="172.99996" y1="493.5" x2="172.99996" y2="526.46484"/><path class="cls-35" d="M173,532.5a30.22216,30.22216,0,0,0-4.75586-8.54736L173,525.67285l4.75489-1.72021A30.1959,30.1959,0,0,0,173,532.5Z"/><line class="cls-42" x1="172.99996" y1="670.5" x2="172.99996" y2="703.46484"/><path class="cls-35" d="M173,709.5a30.22216,30.22216,0,0,0-4.75586-8.54736L173,702.67285l4.75489-1.72021A30.1959,30.1959,0,0,0,173,709.5Z"/></svg>