<svg id="Layer_1" data-name="Layer 1" xmlns="http://www.w3.org/2000/svg" xmlns:xlink="http://www.w3.org/1999/xlink" viewBox="0 0 850 345"><defs><style>.cls-1{fill:url(#linear-gradient);}.cls-2{fill:url(#linear-gradient-2);}.cls-3{fill:url(#linear-gradient-3);}.cls-4{fill:url(#linear-gradient-4);}.cls-5{fill:url(#linear-gradient-5);}.cls-15,.cls-21,.cls-25,.cls-31,.cls-6{font-size:18px;font-family:WorkSans-Regular, Work Sans;}.cls-6{fill:#fff;}.cls-16,.cls-6{letter-spacing:0.0105em;}.cls-7{letter-spacing:0.0143em;}.cls-8{letter-spacing:-0.02441em;}.cls-9{letter-spacing:-0.04959em;}.cls-10,.cls-31{letter-spacing:0.02062em;}.cls-11{letter-spacing:0.01348em;}.cls-12{letter-spacing:0.00692em;}.cls-13{letter-spacing:0.00901em;}.cls-14{letter-spacing:0.02498em;}.cls-15,.cls-21,.cls-25,.cls-31,.cls-35{fill:#ffb100;}.cls-15,.cls-22{letter-spacing:0.01758em;}.cls-17{letter-spacing:0.01649em;}.cls-18,.cls-21{letter-spacing:0.01202em;}.cls-19{letter-spacing:0.01378em;}.cls-20{letter-spacing:0.02501em;}.cls-23{letter-spacing:0.05189em;}.cls-24{letter-spacing:0.02059em;}.cls-25{letter-spacing:0.01248em;}.cls-26{letter-spacing:0.00941em;}.cls-27{letter-spacing:0.00439em;}.cls-28{letter-spacing:0.0701em;}.cls-29{letter-spacing:0.0312em;}.cls-30{letter-spacing:0.01253em;}.cls-32{letter-spacing:0.02962em;}.cls-33,.cls-34,.cls-36,.cls-37,.cls-38,.cls-39,.cls-40,.cls-41,.cls-42{fill:none;stroke:#ffb100;stroke-miterlimit:10;}.cls-33,.cls-34{stroke-width:1.07417px;}.cls-34{stroke-dasharray:9.21236 9.21236;}.cls-36,.cls-37{stroke-width:0.98533px;}.cls-37{stroke-dasharray:8.82177 8.82177;}.cls-38,.cls-39{stroke-width:0.93251px;}.cls-39{stroke-dasharray:8.19721 8.19721;}.cls-40,.cls-41{stroke-width:1.18786px;}.cls-41{stroke-dasharray:10.62469 10.62469;}.cls-42{stroke-dasharray:9 9;}</style><linearGradient id="linear-gradient" x1="363.04339" y1="-114.68132" x2="460.62412" y2="-212.26206" gradientTransform="translate(234.47169 584.33376) rotate(-90)" gradientUnits="userSpaceOnUse"><stop offset="0" stop-color="#ffd800"/><stop offset="1" stop-color="#ffb100"/></linearGradient><linearGradient id="linear-gradient-2" x1="296.79036" y1="221.29037" x2="199.20962" y2="123.70963" gradientTransform="matrix(1, 0, 0, 1, 0, 0)" xlink:href="#linear-gradient"/><linearGradient id="linear-gradient-3" x1="473.79036" y1="221.29037" x2="376.20962" y2="123.70963" gradientTransform="matrix(1, 0, 0, 1, 0, 0)" xlink:href="#linear-gradient"/><linearGradient id="linear-gradient-4" x1="650.79037" y1="221.29037" x2="553.20963" y2="123.70963" gradientTransform="matrix(1, 0, 0, 1, 0, 0)" xlink:href="#linear-gradient"/><linearGradient id="linear-gradient-5" x1="827.79037" y1="221.29037" x2="730.20963" y2="123.70963" gradientTransform="matrix(1, 0, 0, 1, 0, 0)" xlink:href="#linear-gradient"/></defs><title>approach_horizontal</title><circle class="cls-1" cx="71" cy="172.5" r="69"/><path class="cls-2" d="M248,110.5a62,62,0,1,1-62,62,62.07019,62.07019,0,0,1,62-62m0-7a69,69,0,1,0,69,69,69,69,0,0,0-69-69Z"/><path class="cls-3" d="M425,110.5a62,62,0,1,1-62,62,62.07019,62.07019,0,0,1,62-62m0-7a69,69,0,1,0,69,69,69,69,0,0,0-69-69Z"/><path class="cls-4" d="M602,110.5a62,62,0,1,1-62,62,62.07019,62.07019,0,0,1,62-62m0-7a69,69,0,1,0,69,69,69,69,0,0,0-69-69Z"/><path class="cls-5" d="M779,110.5a62,62,0,1,1-62,62,62.07019,62.07019,0,0,1,62-62m0-7a69,69,0,1,0,69,69,69,69,0,0,0-69-69Z"/><text class="cls-6" transform="translate(20.49227 178.23814)">E<tspan class="cls-7" x="11.67285" y="0">M</tspan><tspan class="cls-8" x="27.30176" y="0">P</tspan><tspan class="cls-9" x="37.84229" y="0">A</tspan><tspan class="cls-10" x="48.82959" y="0">T</tspan><tspan class="cls-11" x="60.07227" y="0">H</tspan><tspan class="cls-12" x="73.52686" y="0">I</tspan><tspan class="cls-13" x="78.979" y="0">Z</tspan><tspan class="cls-14" x="90.48096" y="0">E</tspan></text><text class="cls-15" transform="translate(215.10902 178.23775)">D<tspan class="cls-16" x="13.29443" y="0">E</tspan><tspan class="cls-17" x="24.96729" y="0">F</tspan><tspan class="cls-18" x="36.24414" y="0">I</tspan><tspan class="cls-19" x="41.78809" y="0">N</tspan><tspan class="cls-20" x="55.24805" y="0">E</tspan></text><text class="cls-21" transform="translate(392.99018 178.23763)">I<tspan class="cls-22" x="5.54395" y="0">D</tspan><tspan class="cls-23" x="18.83838" y="0">E</tspan><tspan class="cls-9" x="31.25635" y="0">A</tspan><tspan class="cls-24" x="42.24365" y="0">T</tspan><tspan class="cls-20" x="53.48584" y="0">E</tspan></text><text class="cls-25" transform="translate(548.94508 178.23798)">P<tspan class="cls-26" x="11.20459" y="0">R</tspan><tspan class="cls-27" x="23.34375" y="0">OTO</tspan><tspan class="cls-28" x="61.38086" y="0">T</tspan><tspan class="cls-29" x="73.51416" y="0">Y</tspan><tspan class="cls-30" x="84.37158" y="0">P</tspan><tspan class="cls-14" x="95.57666" y="0">E</tspan></text><text class="cls-31" transform="translate(756.41586 178.23811)">T<tspan class="cls-14" x="11.24268" y="0">E</tspan><tspan class="cls-32" x="23.17627" y="0">S</tspan><tspan class="cls-20" x="35.24707" y="0">T</tspan></text><path class="cls-33" d="M429.41992,246.013q1.954,1.423,3.96227,2.76807"/><path class="cls-34" d="M441.21744,253.62494c46.28527,26.35162,109.45978,24.35882,153.24839-5.96649"/><path class="cls-33" d="M598.19029,244.97516q1.93331-1.44864,3.80963-2.97485"/><path class="cls-35" d="M424.283,242.05817a32.463,32.463,0,0,1,4.21173,9.62579l1.62374-5.1842,4.56377-2.94507A32.435,32.435,0,0,1,424.283,242.05817Z"/><path class="cls-36" d="M75.22048,98.49414q1.84727-1.22268,3.70835-2.42993"/><path class="cls-37" d="M86.37258,91.33136c194.18408-121.00885,494.18277-119.069,685.26517,5.76111"/><path class="cls-36" d="M775.32211,99.52362q1.84584,1.23029,3.67767,2.47607"/><path class="cls-35" d="M70.28289,101.807a29.77825,29.77825,0,0,1,9.61679-.63764l-3.96774-3.01489-1.12048-4.85468A29.75235,29.75235,0,0,1,70.28289,101.807Z"/><path class="cls-38" d="M429.9697,99.28845q1.85818-.95846,3.74317-1.89227"/><path class="cls-39" d="M441.11055,93.87164c95.80671-43.88272,237.615-42.44738,330.54722,4.2854"/><path class="cls-38" d="M775.30007,100.025q1.86379.97487,3.69974,1.97467"/><path class="cls-35" d="M425,101.92261a28.18006,28.18006,0,0,1,9.11717.27343l-3.46366-3.20074-.61425-4.675A28.15807,28.15807,0,0,1,425,101.92261Z"/><path class="cls-40" d="M252.64156,247.95612q2.0166,1.7579,4.05474,3.48321"/><path class="cls-41" d="M264.90327,258.18744C409.857,373.93195,629.35388,371.19971,770.99917,250.0459"/><path class="cls-40" d="M775.014,246.56171q2.004-1.7646,3.98633-3.5614"/><path class="cls-35" d="M247.28339,243.19305a35.89887,35.89887,0,0,1,4.00307,10.90754l2.14012-5.61335,5.2351-2.94458A35.86826,35.86826,0,0,1,247.28339,243.19305Z"/><line class="cls-42" x1="140.49999" y1="173" x2="173.46484" y2="173"/><path class="cls-35" d="M179.5,173a30.22191,30.22191,0,0,0-8.54734,4.75586L172.67284,173l-1.72019-4.75488A30.19562,30.19562,0,0,0,179.5,173Z"/><line class="cls-42" x1="317" y1="172" x2="350.96484" y2="172"/><path class="cls-35" d="M357,172a30.22189,30.22189,0,0,0-8.54736,4.75586L350.17285,172l-1.72021-4.75488A30.1956,30.1956,0,0,0,357,172Z"/><line class="cls-42" x1="493.49999" y1="172" x2="526.46484" y2="172"/><path class="cls-35" d="M532.5,172a30.22191,30.22191,0,0,0-8.54734,4.75586L525.67284,172l-1.72019-4.75488A30.19562,30.19562,0,0,0,532.5,172Z"/><line class="cls-42" x1="670.49999" y1="172" x2="703.46484" y2="172"/><path class="cls-35" d="M709.5,172a30.22216,30.22216,0,0,0-8.54736,4.75586L702.67284,172l-1.72021-4.75488A30.19587,30.19587,0,0,0,709.5,172Z"/></svg>