<svg id="Layer_1" data-name="Layer 1" xmlns="http://www.w3.org/2000/svg" viewBox="0 0 900 300"><defs><style>.cls-1,.cls-15,.cls-4,.cls-5{fill:none;stroke:#ffb100;stroke-miterlimit:10;}.cls-1{stroke-width:2.01806px;}.cls-2,.cls-6{fill:#ffb100;}.cls-3{fill:#f9f9f9;}.cls-4,.cls-5{stroke-width:4px;}.cls-4{opacity:0.25;}.cls-6{font-size:12px;font-family:WorkSans-SemiBold, Work Sans;font-weight:600;}.cls-7{letter-spacing:0.0011em;}.cls-8{letter-spacing:-0.00163em;}.cls-9{letter-spacing:0.00004em;}.cls-10{letter-spacing:0.03007em;}.cls-11{letter-spacing:-0.01599em;}.cls-12{letter-spacing:-0.00342em;}.cls-13{letter-spacing:-0.01538em;}.cls-14{letter-spacing:0.00208em;}.cls-15{stroke-dasharray:8;}.cls-16,.cls-40,.cls-47{font-size:16px;fill:#3a3839;font-family:WorkSans-Regular, Work Sans;}.cls-17{letter-spacing:0.00732em;}.cls-18{letter-spacing:-0.0061em;}.cls-19{letter-spacing:-0.0072em;}.cls-20{letter-spacing:-0.0014em;}.cls-21{letter-spacing:-0.00391em;}.cls-22{letter-spacing:0.00357em;}.cls-23{letter-spacing:-0.0025em;}.cls-24{letter-spacing:0.0036em;}.cls-25{letter-spacing:0.00708em;}.cls-26{letter-spacing:-0.009em;}.cls-27{letter-spacing:0.0043em;}.cls-28{letter-spacing:0.00259em;}.cls-29{letter-spacing:-0.02509em;}.cls-30{letter-spacing:-0.00043em;}.cls-31{letter-spacing:-0.00568em;}.cls-32{letter-spacing:-0.00772em;}.cls-33{letter-spacing:0.00003em;}.cls-34{letter-spacing:0.01031em;}.cls-35{letter-spacing:-0.01132em;}.cls-36{letter-spacing:-0.00439em;}.cls-37{letter-spacing:0.00662em;}.cls-38{letter-spacing:-0.00372em;}.cls-39{letter-spacing:0.00211em;}.cls-40{letter-spacing:-0.03em;}.cls-41{letter-spacing:-0.00607em;}.cls-42{letter-spacing:0.00159em;}.cls-43{letter-spacing:0.03em;}.cls-44{letter-spacing:-0.0181em;}.cls-45{letter-spacing:-0.00748em;}.cls-46{letter-spacing:-0.00003em;}.cls-47{letter-spacing:-0.00681em;}.cls-48{letter-spacing:-0.01001em;}.cls-49{letter-spacing:-0.00839em;}.cls-50{letter-spacing:-0.00552em;}.cls-51{letter-spacing:0.03268em;}.cls-52{letter-spacing:0.00562em;}.cls-53{letter-spacing:-0.00922em;}.cls-54{letter-spacing:-0.01129em;}.cls-55{letter-spacing:-0.0065em;}</style></defs><title>ecommerce-timeline</title><line class="cls-1" x1="5.07257" y1="150.00003" x2="896.8114" y2="150.00003"/><polygon class="cls-2" points="890.125 158.254 888.748 156.776 896.037 150.002 888.748 143.226 890.125 141.748 899 150.002 890.125 158.254"/><circle class="cls-2" cx="5.07257" cy="150" r="4"/><circle class="cls-3" cx="142.52694" cy="150" r="44"/><circle class="cls-4" cx="142.52694" cy="150" r="36"/><path class="cls-5" d="M142.52694,114a36,36,0,0,1,36,36"/><text class="cls-6" transform="translate(125.08181 147.80642)"><tspan class="cls-7">W</tspan><tspan x="11.82129" y="0">EEK</tspan><tspan x="4.91211" y="14.3999">O</tspan><tspan class="cls-8" x="13.8042" y="14.3999">N</tspan><tspan class="cls-9" x="22.65283" y="14.3999">E</tspan></text><circle class="cls-3" cx="347.50898" cy="150" r="44"/><circle class="cls-4" cx="347.50898" cy="150" r="36"/><path class="cls-5" d="M347.509,186a36,36,0,0,0,0-72"/><text class="cls-6" transform="translate(330.06384 147.80642)"><tspan class="cls-7">W</tspan><tspan x="11.82129" y="0">EEK</tspan><tspan class="cls-10" x="3.33594" y="14.3999">T</tspan><tspan class="cls-11" x="11.31689" y="14.3999">W</tspan><tspan x="22.93311" y="14.3999">O</tspan></text><circle class="cls-3" cx="552.49102" cy="150" r="44"/><circle class="cls-4" cx="552.49102" cy="150" r="36"/><text class="cls-6" transform="translate(535.0459 147.80642)"><tspan class="cls-7">W</tspan><tspan x="11.82129" y="0">EEK</tspan><tspan class="cls-12" x="-2.2998" y="14.3999">T</tspan><tspan class="cls-8" x="5.2793" y="14.3999">HR</tspan><tspan x="22.26904" y="14.3999">EE</tspan></text><path class="cls-5" d="M516.491,150a36,36,0,1,0,36-36"/><circle class="cls-3" cx="757.47306" cy="150" r="44"/><circle class="cls-5" cx="757.47306" cy="150" r="36"/><text class="cls-6" transform="translate(740.02789 147.80642)"><tspan class="cls-7">W</tspan><tspan x="11.82129" y="0">EEK</tspan><tspan class="cls-13" x="1.17236" y="14.3999">F</tspan><tspan x="8.33154" y="14.3999">O</tspan><tspan class="cls-14" x="17.22363" y="14.3999">U</tspan><tspan class="cls-9" x="25.82861" y="14.3999">R</tspan></text><line class="cls-15" x1="142.52694" y1="106" x2="142.52694" y2="50"/><line class="cls-15" x1="347.50898" y1="250" x2="347.50898" y2="194"/><text class="cls-16" transform="translate(60.69296 39.10253)"><tspan class="cls-17">C</tspan><tspan class="cls-18" x="11.09277" y="0">o</tspan><tspan class="cls-19" x="20.72266" y="0">m</tspan><tspan class="cls-20" x="35.85547" y="0">p</tspan><tspan class="cls-21" x="45.91309" y="0">e</tspan><tspan class="cls-22" x="55.14648" y="0">t</tspan><tspan class="cls-23" x="61.90771" y="0">i</tspan><tspan class="cls-24" x="66.12354" y="0">t</tspan><tspan class="cls-25" x="72.88525" y="0">i</tspan><tspan class="cls-26" x="77.25439" y="0">v</tspan><tspan x="85.43018" y="0">e </tspan><tspan class="cls-27" x="100.18213" y="0">A</tspan><tspan class="cls-18" x="110.81055" y="0">n</tspan><tspan class="cls-28" x="120.6167" y="0">a</tspan><tspan class="cls-29" x="129.71436" y="0">l</tspan><tspan class="cls-30" x="134.20898" y="0">y</tspan><tspan class="cls-31" x="142.76221" y="0">s</tspan><tspan class="cls-32" x="151.10303" y="0">i</tspan><tspan class="cls-33" x="155.23535" y="0">s</tspan></text><line class="cls-15" x1="552.49106" y1="106" x2="552.49106" y2="50"/><text class="cls-16" transform="translate(507.36508 39.10253)"><tspan class="cls-34">W</tspan><tspan class="cls-35" x="15.54102" y="0">i</tspan><tspan class="cls-26" x="19.61572" y="0">r</tspan><tspan class="cls-36" x="25.99951" y="0">e</tspan><tspan class="cls-37" x="35.2251" y="0">f</tspan><tspan class="cls-24" x="41.61865" y="0">r</tspan><tspan class="cls-28" x="48.2041" y="0">a</tspan><tspan class="cls-38" x="57.30176" y="0">m</tspan><tspan class="cls-39" x="72.49023" y="0">e</tspan><tspan x="81.81982" y="0">s</tspan></text><text class="cls-40" transform="translate(305.79617 271.73071)">W<tspan class="cls-41" x="14.896" y="0">o</tspan><tspan class="cls-42" x="24.52637" y="0">r</tspan><tspan class="cls-43" x="31.07959" y="0">k</tspan><tspan class="cls-34" x="40.63135" y="0">fl</tspan><tspan class="cls-44" x="51.97998" y="0">o</tspan><tspan class="cls-45" x="61.41797" y="0">w</tspan><tspan class="cls-46" x="74.99414" y="0">s</tspan></text><line class="cls-15" x1="757.47291" y1="250" x2="757.47291" y2="194"/><text class="cls-47" transform="translate(712.32846 271.73071)">P<tspan class="cls-48" x="9.65088" y="0">r</tspan><tspan class="cls-49" x="16.01855" y="0">o</tspan><tspan class="cls-50" x="25.6123" y="0">t</tspan><tspan class="cls-49" x="32.22803" y="0">o</tspan><tspan class="cls-51" x="41.82129" y="0">t</tspan><tspan class="cls-52" x="49.04834" y="0">y</tspan><tspan class="cls-53" x="57.69775" y="0">p</tspan><tspan class="cls-54" x="67.63037" y="0">i</tspan><tspan class="cls-55" x="71.70557" y="0">n</tspan><tspan class="cls-33" x="81.50537" y="0">g</tspan></text></svg>